<?xml version="1.0" encoding="UTF-8"?>
<svg version="1.1" viewBox="0 0 2048 2048" width="1280" height="1280" xmlns="http://www.w3.org/2000/svg">
<path transform="translate(1403,192)" d="m0 0h29l29 2 35 5 23 5 28 8 28 10 21 9 19 10 15 8 19 12 16 11 16 13 9 7 24 22 8 8 7 1 65-16 46-15 28-10 56-24 33-17 22-12 9-5h2l-1 5-12 32-18 37-9 15-10 16-13 18-10 13-11 12-7 8-9 10-12 11-9 9-14 11-15 12-22 15-9 6 37-6 33-6 54-13 60-19 38-15 15-6h2v2l-5 5-14 19-13 18-14 19-11 12-9 11-12 13-7 8-11 12-19 19-8 7-14 14-8 7-10 9-14 11-18 14-17 13-5 4v75l-1 35-4 53-5 43-7 47-8 42-11 47-9 34-13 43-16 47-12 31-13 32-18 40-14 29-8 15-8 16-16 29-15 26-15 23-11 18-15 22-16 23-12 16-10 13-13 17-9 11-12 14-9 11-9 10-7 8-15 16-11 12-43 43-8 7-12 11-8 7-28 24-28 22-13 10-14 10-34 24-41 26-26 15-25 14-23 12-34 17-25 11-33 14-35 13-34 12-50 15-60 15-45 9-36 6-54 7-45 4-28 2-23 1h-87l-46-2-41-4-43-5-32-5-54-10-60-15-32-9-36-12-41-14-48-20-26-11-74-37-27-16-20-12-21-12-2-1v-2h9l35 3 18 1h58l41-2 30-3 45-6 22-4 50-11 31-9 42-13 60-24 25-12 42-21 56-34 18-13 14-10 18-13 3-1-2-2-23-1-31-4-25-5-17-4-26-8-19-7-21-9-25-12-28-17-16-11-12-9-22-18-15-14-17-17-7-8-12-14-15-20-14-21-14-24-11-22-9-21-9-24v-2l17 2 28 3 23 1h15l47-3 26-4 29-6-6-2-30-8-31-11-33-15-24-13-16-10-16-11-13-10-16-13-10-9-16-15-16-17-12-14-12-16-12-17-13-21-15-28-11-25-9-25-8-27-6-27-5-33-2-29-1-20 6 1 34 16 19 7 36 12 42 9 30 3 20 1-10-8-17-13-14-12-7-7-8-7-18-18-9-11-14-17-11-15-12-19-8-13-8-14-15-33-8-21-9-28-6-26-6-34-3-41v-20l3-41 4-24 8-37 11-33 8-21 11-23 8-16 4-7 7 6 9 11 10 11 9 11 12 13 11 12 8 8 7 8 25 25 8 7 12 12 8 7 12 11 11 9 10 9 11 9 16 13 16 12 18 14 17 12 23 16 21 14 21 13 23 14 47 26 15 8 23 11 29 14 43 18 26 10 42 15 32 10 35 10 53 13 58 11 41 6 45 5 51 4-7-49-2-33v-26l2-30 6-40 9-36 9-27 8-20 10-22 9-17 16-26 12-17 10-13 8-10 11-12 7-8 5-6h2l1-3 8-7 13-12 11-9 21-16 15-10 27-16 28-14 25-10 30-10 28-7 36-6 18-2z" fill="#03AAFA"/>
</svg>
